<?xml version="1.0" encoding="utf-8"?>
<!-- Generator: Adobe Illustrator 27.7.0, SVG Export Plug-In . SVG Version: 6.00 Build 0)  -->
<svg version="1.1" id="Ebene_1" xmlns="http://www.w3.org/2000/svg" xmlns:xlink="http://www.w3.org/1999/xlink" x="0px" y="0px"
	 viewBox="0 0 450 126" style="enable-background:new 0 0 450 126;" xml:space="preserve">
<style type="text/css">
	.st0{fill:#1D1D1B;}
	.st1{fill:#CD0A1E;}
</style>
<path class="st0" d="M146.1,28c0-2,0-9.3,0.1-11.2h-0.1c-0.4,0.8-2.7,5.4-3.1,6.4l-4.2,8.3H137l-4.2-8.3c-0.4-0.9-2.8-5.4-3.3-6.4
	c0,2,0.1,9.3,0.1,11.2v8.3h-2V14.2h2.7l7.5,14.6l7.5-14.6h2.8v22.2h-2V28C146.2,28,146.1,28,146.1,28z M156,17h-2.1v-2.7h2.1V17z
	 M156,36.4h-1.8V19.7h1.8V36.4z M170.8,36c-0.8,0.4-2.4,0.7-3.7,0.7c-3.4,0-4.2-1.3-4.2-5.2v-10h-3v-1.3l3.1-0.3l0.4-3.7h1.3v3.7
	h5.8v1.6h-5.8v10.2c0,2.7,0.3,3.5,2.8,3.5c1,0,2.5-0.3,3.3-0.7L170.8,36L170.8,36z M183.5,36c-0.8,0.4-2.4,0.7-3.7,0.7
	c-3.4,0-4.2-1.3-4.2-5.2v-10h-3v-1.3l3.1-0.3l0.4-3.7h1.3v3.7h5.8v1.6h-5.8v10.2c0,2.7,0.3,3.5,2.8,3.5c1,0,2.5-0.3,3.3-0.7
	L183.5,36L183.5,36L183.5,36z M188.2,28.3c0,2.5,0.4,4.4,1.6,5.5c0.8,0.8,2.4,1.3,4.2,1.3c1.4,0,3.1-0.1,4.8-0.8V36
	c-1.4,0.6-3.5,0.7-5.1,0.7c-5.2,0-7.5-2.5-7.5-8.6c0-6.4,2.8-8.6,7.1-8.6c4.5,0,6.2,2.4,6.2,6.9c0,0.3,0,1.1-0.1,2L188.2,28.3
	L188.2,28.3z M189.9,22.3c-0.8,0.8-1.4,2.4-1.6,4.5h9.5v-0.7c0-1.7-0.3-3.1-1.1-3.8c-0.7-0.7-1.8-1.1-3.3-1.1
	C192,21,190.8,21.4,189.9,22.3L189.9,22.3z M206.2,36.4h-1.8V14.2h1.8V36.4z M221.3,31.7c0-2.7-1.8-3-4.2-3
	c-2.5-0.1-5.8-0.3-5.8-4.8c0-3.7,3.1-4.5,6.4-4.5c1.1,0,3,0.1,4.2,0.6v1.6c-1.6-0.4-3.1-0.6-4.4-0.6c-2.5,0-4.4,0.7-4.4,3
	c0,2.7,2,2.8,4.2,3c2.8,0.1,5.8,0.4,5.8,4.8c0,3.8-3.5,5-6.9,5c-1.3,0-3.7-0.3-5.1-0.7v-1.7c1.6,0.6,3.7,0.8,5.1,0.8
	C219.3,35,221.3,34.1,221.3,31.7L221.3,31.7z M236.6,36c-0.8,0.4-2.4,0.7-3.7,0.7c-3.4,0-4.2-1.3-4.2-5.2v-10h-3v-1.3l3.1-0.3
	l0.4-3.7h1.3v3.7h5.8v1.6h-5.8v10.2c0,2.7,0.3,3.5,2.8,3.5c1,0,2.5-0.3,3.3-0.7L236.6,36L236.6,36z M249.6,26.9v-2.5
	c0-3-1.3-3.4-4.2-3.4c-1.3,0-3.1,0.1-5,0.6V20c1.7-0.4,4-0.6,5.2-0.6c4,0,5.9,0.8,5.9,4.8v12.2h-1.4l-0.3-1.7c-1.6,1.3-3.3,2-5.2,2
	c-1.7,0-3.3-0.4-4.2-1.4c-0.8-0.8-1.3-2-1.3-3.4c0-1.6,0.4-2.7,1.3-3.4c1.3-1.3,3.5-1.6,6.2-1.6C247.1,26.8,248.5,26.8,249.6,26.9z
	 M249.6,28.3c-1.1-0.1-2.4-0.1-3-0.1c-2.7,0-4,0.3-4.8,1.1c-0.4,0.4-0.7,1.3-0.7,2.4c0,2.4,1.7,3.3,3.8,3.3c2.1,0,3.7-0.8,4.8-2.1
	v-4.5L249.6,28.3L249.6,28.3z M258.7,22.1c1.8-2,4.1-2.7,6.4-2.7c4.1,0,5.1,1.8,5.1,5.2v11.7h-1.8V25.1c0-2.8-0.8-4-3.7-4
	c-2.3,0-4.2,1-5.8,3v12.3H257V19.7h1.4L258.7,22.1z M281.4,36.7c-4.5,0-6.8-2.7-6.8-8.6c0-5.9,2.7-8.6,7.5-8.6
	c1.6,0,3.4,0.3,4.4,1.1v-6.4h1.8v22.2h-1.4l-0.1-2.1C285.2,36,283.4,36.7,281.4,36.7L281.4,36.7z M286.5,22.4c-1-1-2.5-1.3-4.2-1.3
	c-3.5,0-5.8,1.8-5.8,6.9c0,5,1.7,6.9,5.1,6.9c1.8,0,3.4-0.8,4.8-2.5v-10L286.5,22.4L286.5,22.4z M302.4,28.3h-9.8v-1.7h9.8V28.3z
	 M320.2,34.3c-1.6,1.6-3.4,2.1-6.2,2.1h-7.4V14.2h7.4c2.8,0,4.7,0.6,6.2,2.1c1.7,1.7,2.7,4.7,2.7,8.9
	C322.9,29.6,321.9,32.4,320.2,34.3z M318.6,17.4c-1.3-1.3-2.7-1.6-4.7-1.6h-5.2v19h5.2c2,0,3.4-0.4,4.7-1.6c1.4-1.4,2.1-4,2.1-7.8
	S319.9,18.9,318.6,17.4L318.6,17.4z M329.7,17h-2.1v-2.7h2.1V17z M329.5,36.4h-1.8V19.7h1.8V36.4z M347.9,35.8
	c0,5.7-4.1,6.4-7.2,6.4c-1.7,0-3.8-0.3-5.2-0.7v-1.7c1.4,0.4,3.1,0.8,5.1,0.8c3,0,5.5-0.8,5.5-4.5v-3c-1.4,1.6-3.1,2.3-5,2.3
	c-4.4,0-6.6-2.4-6.6-7.9c0-5.5,2.7-7.9,7.4-7.9c1.4,0,3.3,0.3,4.5,1.4l0.3-1.1h1.3L347.9,35.8L347.9,35.8z M346.1,22.4
	c-1-1-2.4-1.4-4.1-1.4c-3.4,0-5.7,1.7-5.7,6.4c0,4.5,1.7,6.4,5,6.4c1.8,0,3.4-1,4.7-2.7v-8.6L346.1,22.4L346.1,22.4z M355.7,17h-2.1
	v-2.7h2.1V17z M355.7,36.4h-1.8V19.7h1.8V36.4z M370.5,36c-0.9,0.4-2.4,0.7-3.7,0.7c-3.4,0-4.2-1.3-4.2-5.2v-10h-3v-1.3l3.1-0.3
	l0.4-3.7h1.3v3.7h5.8v1.6h-5.8v10.2c0,2.7,0.3,3.5,2.8,3.5c1,0,2.5-0.3,3.3-0.7L370.5,36L370.5,36L370.5,36z M383.5,26.9v-2.5
	c0-3-1.3-3.4-4.2-3.4c-1.3,0-3.1,0.1-5,0.6V20c1.7-0.4,4-0.6,5.2-0.6c4,0,5.9,0.8,5.9,4.8v12.2h-1.4l-0.3-1.7c-1.6,1.3-3.3,2-5.2,2
	c-1.7,0-3.3-0.4-4.2-1.4c-0.9-0.8-1.3-2-1.3-3.4c0-1.6,0.4-2.7,1.3-3.4c1.3-1.3,3.5-1.6,6.2-1.6C381,26.8,382.4,26.8,383.5,26.9z
	 M383.5,28.3c-1.1-0.1-2.4-0.1-3-0.1c-2.7,0-4,0.3-4.8,1.1c-0.4,0.4-0.7,1.3-0.7,2.4c0,2.4,1.7,3.3,3.8,3.3s3.7-0.8,4.8-2.1v-4.5
	L383.5,28.3L383.5,28.3z M392.7,36.4h-1.8V14.2h1.8V36.4z M126.8,69.6v-3.1l10.8-15.4h-9.8v-3.5h15.3v3.1l-10.8,15.4h10.8v3.5H126.8
	z M150.3,62.3c0,1.4,0.1,2.7,1,3.5c0.8,0.8,2,1.1,3.8,1.1c1.3,0,3.5-0.3,5.2-0.7v3.1c-1.7,0.4-4.2,0.8-6.1,0.8c-6.2,0-8.6-3-8.6-8.9
	c0-6.8,3.8-8.9,8.2-8.9c5,0,7.2,2.4,7.2,7.2c0,0.6,0,1.8-0.1,2.7L150.3,62.3L150.3,62.3z M151.4,56.5c-0.6,0.6-0.8,1.6-1,2.8h6.6
	v-0.7c0-1-0.3-1.7-0.7-2.3c-0.6-0.6-1.4-0.7-2.3-0.7S152,55.8,151.4,56.5L151.4,56.5z M175.1,52.5c4.1,0,5.7,1.6,5.7,5.2v11.9h-4.2
	v-11c0-2-0.7-2.5-2.5-2.5c-1.6,0-3.4,1-4.4,2.1v11.5h-4.2V52.9h3l0.6,2.1C170.7,53.2,172.9,52.5,175.1,52.5L175.1,52.5z M195.9,69.3
	c-1.3,0.6-3.3,0.7-4.4,0.7c-3.8,0-5.2-1.3-5.2-5.9v-7.9h-2.7v-2.8l3.1-0.4l1.1-3.7h2.8v3.7h5.1v3.1h-5.2v7.8c0,2.3,0.7,2.5,2.4,2.5
	c0.6,0,2-0.1,2.8-0.4v3.4L195.9,69.3L195.9,69.3z M207.3,52.7c0.8,0,1.7,0.1,2.4,0.4v3.3c-0.8-0.3-1.7-0.3-2-0.3
	c-2.3,0-3.3,1.3-4.1,2.5v10.9h-4.2V52.9h3l0.6,2.4C203.8,53.8,205,52.7,207.3,52.7L207.3,52.7z M217.6,70.1c-4.1,0-5.7-1.7-5.7-5.4
	V52.9h4.2v11c0,2,0.7,2.5,2.5,2.5c1.6,0,3.4-1,4.4-2.1V52.9h4.2v16.7h-3l-0.6-2.1C222,69.3,219.8,70.1,217.6,70.1z M246.8,54.9
	c1.7-1.7,3.5-2.4,5.5-2.4c4,0,5.4,1.6,5.4,5.2v11.9h-4.2v-11c0-2-0.6-2.5-2.3-2.5c-1.4,0-3,1-4,2.1v11.5H243v-11
	c0-2-0.6-2.5-2.3-2.5c-1.4,0-3,1-4,2.1v11.5h-4.2V52.9h3l0.6,2.1c1.7-1.8,3.7-2.5,5.7-2.5C244.5,52.5,246.1,53.4,246.8,54.9
	L246.8,54.9z M138.9,96.5c0-2.5-1.7-2.8-4.8-3c-4.4-0.3-7.8-1.3-7.8-6.5c0-4.8,3.8-6.8,9.3-6.8c1.1,0,4.2,0.3,5.9,0.8v3.4
	c-2.3-0.6-4.7-0.7-5.8-0.7c-3.3,0-4.8,1-4.8,2.8c0,2.5,1.7,2.7,4.8,2.8c4.2,0.1,7.8,1.4,7.8,6.8c0,4.8-4,7.2-9.8,7.2
	c-1.1,0-4.4-0.1-6.9-1v-3.5c2.3,0.6,5.5,0.8,6.8,0.8C137.6,99.6,138.9,98.3,138.9,96.5L138.9,96.5z M159.6,99.2v3.4
	c-1.8,0.6-3.7,0.8-5,0.8c-5.9,0-8.5-2.8-8.5-8.9c0-4.7,1.3-8.9,8.8-8.9c1,0,2.8,0.1,4.4,0.7v3.1c-1.3-0.3-2.8-0.4-3.8-0.4
	c-1.7,0-2.8,0.3-3.5,1c-0.7,0.7-1.1,2.5-1.1,4.5s0.4,3.5,1.1,4.4c0.8,0.8,2,1,3.5,1C156.2,99.9,158.1,99.8,159.6,99.2z M163.3,80.7
	h4.2v7.1c1.7-1.4,3.7-2,5.5-2c4.1,0,5.7,1.6,5.7,5.2v11.9h-4.2v-11c0-2-0.7-2.5-2.5-2.5c-1.6,0-3.4,1-4.4,2.1v11.5h-4.2L163.3,80.7
	L163.3,80.7L163.3,80.7z M187.8,102.9h-4.2V80.7h4.2V102.9z M196.4,95.5c0,1.4,0.1,2.7,1,3.5c0.8,0.8,2,1.1,3.8,1.1
	c1.3,0,3.5-0.3,5.2-0.7v3.1c-1.7,0.4-4.2,0.8-6.1,0.8c-6.2,0-8.6-3-8.6-8.9c0-6.8,3.8-8.9,8.2-8.9c4.9,0,7.2,2.4,7.2,7.2
	c0,0.6,0,1.8-0.1,2.7L196.4,95.5L196.4,95.5L196.4,95.5z M197.5,89.7c-0.6,0.6-0.8,1.6-1,2.8h6.6v-0.7c0-1-0.3-1.7-0.7-2.3
	c-0.6-0.6-1.4-0.7-2.3-0.7S198.1,89,197.5,89.7L197.5,89.7z M220.3,98.1c0-1.7-1.3-1.8-3.5-1.8c-3.5,0-6.5-0.8-6.5-5.2
	c0-3.8,3.3-5.2,7.6-5.2c1,0,3.8,0.1,5.2,0.7v3.1c-1.8-0.4-4.2-0.6-5.1-0.6c-2.1,0-3.4,0.6-3.4,1.7c0,1.8,1.4,1.7,3.4,1.7
	c3.3,0.1,6.6,0.8,6.6,5.4c0,3.8-3.4,5.7-8.3,5.7c-1,0-3.5-0.1-5.7-0.8v-3.3c2,0.4,4.5,0.7,5.7,0.7C218.9,99.9,220.3,99.3,220.3,98.1
	L220.3,98.1z M237.2,89.2l-1.1-3h4.1l2.3,6.1c0.8,2.4,1.7,4.7,2.1,6.4c0.3-1.7,1-4.1,1.7-6.4l1.8-6.1h4.2l-5.5,16.7h-4.4l-3.4-8.6
	l-3.4,8.6h-4.4l-5.4-16.7h4.4l1.8,5.9c0.7,2.4,1.3,4.7,1.7,6.5c0.4-1.7,1.6-4.5,2.3-6.5L237.2,89.2L237.2,89.2z M259.5,84.2h-4.8
	v-3.5h4.8V84.2z M259.2,102.9H255V86.2h4.2V102.9z M279.2,101.7c0,5.9-4.5,7.1-8.3,7.1c-1.4,0-4.4-0.1-6.4-0.8v-3.4
	c2.1,0.6,4.5,0.7,5.8,0.7c3.8,0,4.5-1.6,4.5-3.4v-1.7c-1.3,1.1-3,1.6-4.4,1.6c-4.8,0-7.2-2.5-7.2-8.1c0-5.2,2.7-8.1,8.1-8.1
	c1.4,0,3.1,0.4,4.7,1.6l0.6-1.1h2.7L279.2,101.7L279.2,101.7z M274.9,90.4c-0.8-0.8-2.1-1.3-3.5-1.3c-2.8,0-3.5,1.8-3.5,4.8
	c0,3.5,1.1,4.7,3.5,4.7c1.4,0,2.8-1,3.5-2V90.4L274.9,90.4z M294.3,95.8h-11.7v-3.5h11.7V95.8z M297.7,102.9V80.7h4.5v9.1h9.2v-9.1
	h4.5v22.2h-4.5v-9.5h-9.2v9.5H297.7z M328.5,103.4c-4.8,0-8.5-2-8.5-8.9c0-6.9,3.7-8.9,8.5-8.9c4.8,0,8.5,2,8.5,8.9
	C337,101.5,333.3,103.4,328.5,103.4z M325.8,99.3c0.7,0.7,1.6,0.8,2.7,0.8s2-0.3,2.7-0.8c0.9-0.8,1.3-2.4,1.3-4.8
	c0-2.5-0.4-4-1.3-4.8c-0.7-0.7-1.6-0.8-2.7-0.8s-2,0.3-2.7,0.8c-0.8,0.8-1.3,2.4-1.3,4.8C324.6,97.1,325,98.5,325.8,99.3z
	 M345.4,102.9h-4.2V80.7h4.2V102.9z M359.2,98.1c0-1.7-1.3-1.8-3.5-1.8c-3.5,0-6.5-0.8-6.5-5.2c0-3.8,3.3-5.2,7.6-5.2
	c1,0,3.8,0.1,5.2,0.7v3.1c-1.8-0.4-4.2-0.6-5.1-0.6c-2.1,0-3.4,0.6-3.4,1.7c0,1.8,1.4,1.7,3.4,1.7c3.3,0.1,6.6,0.8,6.6,5.4
	c0,3.8-3.4,5.7-8.3,5.7c-1,0-3.5-0.1-5.7-0.8v-3.3c2,0.4,4.5,0.7,5.7,0.7C357.8,99.9,359.2,99.3,359.2,98.1L359.2,98.1z
	 M377.5,102.6c-1.3,0.6-3.3,0.7-4.4,0.7c-3.8,0-5.2-1.3-5.2-5.9v-7.9h-2.7v-2.8l3.1-0.4l1.1-3.7h2.8v3.7h5.1v3.1h-5.2v7.9
	c0,2.3,0.7,2.5,2.4,2.5c0.6,0,2-0.1,2.8-0.4v3.3L377.5,102.6L377.5,102.6z M384.3,95.5c0,1.4,0.1,2.7,1,3.5c0.9,0.8,2,1.1,3.8,1.1
	c1.3,0,3.5-0.3,5.2-0.7v3.1c-1.7,0.4-4.2,0.8-6.1,0.8c-6.2,0-8.6-3-8.6-8.9c0-6.8,3.8-8.9,8.2-8.9c4.9,0,7.2,2.4,7.2,7.2
	c0,0.6,0,1.8-0.1,2.7L384.3,95.5L384.3,95.5L384.3,95.5z M385.4,89.7c-0.6,0.6-0.8,1.6-1,2.8h6.6v-0.7c0-1-0.3-1.7-0.7-2.3
	c-0.6-0.6-1.4-0.7-2.3-0.7C387.2,88.9,386.1,89,385.4,89.7L385.4,89.7z M403.8,84.2H399v-3.5h4.8V84.2z M403.5,102.9h-4.2V86.2h4.2
	V102.9z M418.3,85.8c4.1,0,5.7,1.6,5.7,5.2v11.9h-4.2v-11c0-2-0.7-2.5-2.5-2.5c-1.6,0-3.4,1-4.4,2.1v11.5h-4.2V86.2h3l0.6,2.1
	C414.1,86.5,416.2,85.8,418.3,85.8L418.3,85.8z"/>
<g>
	<path class="st1" d="M79.2,87.2c0-1.6-1.3-2.7-2.7-2.7c-1.4,0-2.7,1.3-2.7,2.7c0,1.6,1.3,2.7,2.7,2.7
		C77.9,89.9,79.2,88.6,79.2,87.2z"/>
	<path class="st1" d="M95.9,66L83.1,77.4h-17c-0.7,2.5-3.1,4.5-5.9,4.5c-3.4,0-6.2-2.8-6.2-6.2s2.8-6.2,6.2-6.2
		c2.8,0,5.2,1.8,5.9,4.5h15.6l12.6-11.6h18.2v-7.8H66.2c-0.7,2.5-3.1,4.5-5.9,4.5c-3.4,0-6.2-2.8-6.2-6.2c0-3.4,2.8-6.2,6.2-6.2
		c2.8,0,5.2,1.8,5.9,4.5h46.5v-7.8H94.4L81.9,31.9H66.3c-0.7,2.5-3.1,4.5-5.9,4.5c-3.4,0-6.2-2.8-6.2-6.2c0-3.4,2.8-6.2,6.2-6.2
		c2.8,0,5.2,1.8,5.9,4.5h17l12.6,11.6h17V14.2H52.1c-15.6,0-28,12.6-28,28v8.9h17l12.6-11.6h17c0.7-2.5,3.1-4.5,5.9-4.5
		c3.4,0,6.2,2.8,6.2,6.2s-2.8,6.2-6.2,6.2c-2.8,0-5.2-1.8-5.9-4.5H55.1L42.2,54.8H24v7.8h46.5c0.7-2.5,3.1-4.5,5.9-4.5
		c3.4,0,6.2,2.8,6.2,6.2s-2.8,6.2-6.2,6.2c-2.8,0-5.2-1.8-5.9-4.5H24v7.8h18.2l12.6,11.6h15.6c0.7-2.5,3.1-4.5,5.9-4.5
		c3.4,0,6.2,2.8,6.2,6.2c0,3.4-2.8,6.2-6.2,6.2c-2.8,0-5.2-1.8-5.9-4.5h-17L41,77.4H24.1c1.3,14.3,13.3,25.5,28,25.5h32.5
		c15.6,0,28-12.6,28-28V66L95.9,66L95.9,66z"/>
	<path class="st1" d="M79.2,64.3c0-1.6-1.3-2.7-2.7-2.7c-1.4,0-2.7,1.3-2.7,2.7s1.3,2.7,2.7,2.7C77.9,66.9,79.2,65.8,79.2,64.3z
		 M57.5,52.9c0,1.6,1.3,2.7,2.7,2.7s2.7-1.3,2.7-2.7c0-1.6-1.3-2.7-2.7-2.7S57.5,51.4,57.5,52.9z M57.5,75.7c0,1.6,1.3,2.7,2.7,2.7
		c1.6,0,2.7-1.3,2.7-2.7S61.6,73,60.2,73C58.7,73,57.5,74.2,57.5,75.7z M57.5,30c0,1.6,1.3,2.7,2.7,2.7c1.6,0,2.7-1.3,2.7-2.7
		s-1.3-2.7-2.7-2.7C58.7,27.3,57.5,28.6,57.5,30z M79.2,41.5c0-1.6-1.3-2.7-2.7-2.7c-1.4,0-2.7,1.3-2.7,2.7c0,1.6,1.3,2.7,2.7,2.7
		C77.9,44.2,79.2,42.9,79.2,41.5z"/>
</g>
</svg>
